<?xml version="1.0" encoding="iso-8859-1"?>
<!-- Uploaded to: SVG Repo, www.svgrepo.com, Generator: SVG Repo Mixer Tools -->
<svg fill="#000000" height="800px" width="800px" version="1.1" id="Layer_1" xmlns="http://www.w3.org/2000/svg" xmlns:xlink="http://www.w3.org/1999/xlink" 
	 viewBox="0 0 512 512" xml:space="preserve">
<g>
	<g>
		<g>
			<path d="M469.333,0H42.667C20.736,0,0,20.736,0,42.667V435.2c0,4.71,3.823,8.533,8.533,8.533s8.533-3.823,8.533-8.533V42.667
				c0-12.442,13.158-25.6,25.6-25.6h426.667c12.442,0,25.6,13.158,25.6,25.6v426.667c0,12.442-13.158,25.6-25.6,25.6H42.667
				c-12.442,0-25.6-13.158-25.6-25.6c0-4.71-3.823-8.533-8.533-8.533S0,464.623,0,469.333C0,491.264,20.736,512,42.667,512h426.667
				C491.264,512,512,491.264,512,469.333V42.667C512,20.736,491.264,0,469.333,0z"/>
			<path d="M59.989,460.8c4.719,0,8.533-3.823,8.533-8.533c0-4.71-3.814-8.533-8.533-8.533h-0.085c-4.71,0-8.491,3.823-8.491,8.533
				C51.413,456.977,55.279,460.8,59.989,460.8z"/>
			<path d="M59.989,68.267c4.719,0,8.533-3.823,8.533-8.533S64.708,51.2,59.989,51.2h-0.085c-4.71,0-8.491,3.823-8.491,8.533
				S55.279,68.267,59.989,68.267z"/>
			<path d="M179.2,230.4c-14.114,0-25.6,11.486-25.6,25.6s11.486,25.6,25.6,25.6s25.6-11.486,25.6-25.6S193.314,230.4,179.2,230.4z
				 M179.2,264.533c-4.702,0-8.533-3.831-8.533-8.533c0-4.702,3.831-8.533,8.533-8.533c4.702,0,8.533,3.831,8.533,8.533
				C187.733,260.702,183.902,264.533,179.2,264.533z"/>
			<path d="M452.523,68.267c4.719,0,8.533-3.823,8.533-8.533s-3.814-8.533-8.533-8.533h-0.085c-4.71,0-8.491,3.823-8.491,8.533
				S447.812,68.267,452.523,68.267z"/>
			<path d="M452.523,460.8c4.719,0,8.533-3.823,8.533-8.533c0-4.71-3.814-8.533-8.533-8.533h-0.085c-4.71,0-8.491,3.823-8.491,8.533
				C443.947,456.977,447.812,460.8,452.523,460.8z"/>
			<path d="M332.8,281.6c14.114,0,25.6-11.486,25.6-25.6s-11.486-25.6-25.6-25.6c-14.114,0-25.6,11.486-25.6,25.6
				S318.686,281.6,332.8,281.6z M332.8,247.467c4.702,0,8.533,3.831,8.533,8.533c0,4.702-3.831,8.533-8.533,8.533
				c-4.702,0-8.533-3.831-8.533-8.533C324.267,251.298,328.098,247.467,332.8,247.467z"/>
			<path d="M264.789,256c0-4.71-3.814-8.533-8.533-8.533h-0.085c-4.71,0-8.491,3.823-8.491,8.533s3.866,8.533,8.576,8.533
				C260.975,264.533,264.789,260.71,264.789,256z"/>
			<path d="M426.667,256c0-94.106-76.561-170.667-170.667-170.667S85.333,161.894,85.333,256S161.894,426.667,256,426.667
				S426.667,350.106,426.667,256z M247.467,384v25.165C166.75,404.702,102.4,337.818,102.4,256s64.35-148.702,145.067-153.165V128
				c0,4.71,3.823,8.533,8.533,8.533s8.533-3.823,8.533-8.533v-25.165C345.25,107.298,409.6,174.182,409.6,256
				s-64.35,148.702-145.067,153.165V384c0-4.71-3.823-8.533-8.533-8.533S247.467,379.29,247.467,384z"/>
		</g>
	</g>
</g>
</svg>