<?xml version="1.0" encoding="iso-8859-1"?>
<!-- Uploaded to: SVG Repo, www.svgrepo.com, Generator: SVG Repo Mixer Tools -->
<svg fill="#000000" height="800px" width="800px" version="1.1" id="Layer_1" xmlns="http://www.w3.org/2000/svg" xmlns:xlink="http://www.w3.org/1999/xlink" 
	 viewBox="0 0 512 512" xml:space="preserve">
<g>
	<g>
		<g>
			<path d="M207.3,301.167c-3.336,3.337-3.336,8.73,0,12.066l25.6,25.6c1.664,1.664,3.849,2.5,6.033,2.5
				c2.185,0,4.369-0.836,6.033-2.5c3.336-3.336,3.336-8.73,0-12.066l-25.6-25.6C216.03,297.83,210.637,297.83,207.3,301.167z"/>
			<path d="M409.6,153.6c0-16.196-11.981-28.86-31.983-33.86l-52.651-13.73l50.5-3.61c18.825,0,34.133-15.309,34.133-34.133
				c0-16.196-11.981-28.86-31.983-33.86L277.103,8.192C273.553,5.513,265.131,0,256,0c-9.028,0-17.263,5.444-20.89,8.243
				l-40.695,9.028c-4.599,1.024-7.501,5.572-6.485,10.18c1.024,4.591,5.564,7.552,10.189,6.477l42.667-9.463
				c1.417-0.316,2.739-0.99,3.823-1.963c1.92-1.707,7.441-5.436,11.392-5.436c3.977,0,9.566,3.652,11.631,5.402
				c0.981,0.845,2.15,1.459,3.422,1.792l102.349,26.684c5.751,1.442,19.132,6.007,19.132,17.323c0,9.412-7.663,17.067-17.672,17.084
				L136.533,102.4c-9.412,0-17.067-7.654-17.067-17.067c0-9.412,7.654-17.067,17.69-17.092l145.067-10.667
				c4.702-0.341,8.235-4.437,7.885-9.131c-0.341-4.702-4.497-8.286-9.131-7.885L136.533,51.2c-18.825,0-34.133,15.309-34.133,34.133
				c0,17.894,13.892,32.452,31.949,33.843c0.017,0,0.017,0.009,0.034,0.017l52.386,13.636l-50.236,3.703
				c-18.825,0-34.133,15.309-34.133,34.133c0,17.894,13.892,32.452,31.949,33.843c0.017,0,0.017,0.009,0.034,0.017l52.386,13.636
				l-50.236,3.703c-18.825,0-34.133,15.309-34.133,34.133c0,18.807,15.292,34.116,34.697,34.116h0.043l24.619-1.766
				c-4.719,5.222-8.158,11.511-8.158,18.85c0,18.978,15.42,29.542,20.335,32.427c3.55,3.806,10.069,12.211,12.646,20.702
				c-9.327,3.831-15.915,12.988-15.915,23.671c0,6.554,2.475,12.536,6.536,17.067c-4.062,4.531-6.536,10.513-6.536,17.067
				c0,6.554,2.475,12.535,6.536,17.067c-4.062,4.531-6.536,10.513-6.536,17.067c0,14.114,11.486,25.6,25.6,25.6
				c4.719,0,8.533-3.823,8.533-8.533s-3.814-8.533-8.533-8.533c-4.71,0-8.533-3.831-8.533-8.533c0-4.702,3.823-8.533,8.533-8.533
				H281.6c4.719,0,8.533-3.823,8.533-8.533s-3.814-8.533-8.533-8.533h-85.333c-4.71,0-8.533-3.831-8.533-8.533
				s3.823-8.533,8.533-8.533H281.6c4.719,0,8.533-3.823,8.533-8.533s-3.814-8.533-8.533-8.533h-85.333
				c-4.71,0-8.533-3.831-8.533-8.533c0-4.702,3.823-8.533,8.533-8.533H281.6c4.719,0,8.533-3.823,8.533-8.533
				s-3.814-8.533-8.533-8.533h-77.798c-3.763-16.401-16.853-29.918-18.568-31.633c-0.623-0.623-1.382-1.169-2.167-1.579
				c-0.128-0.06-12.399-6.537-12.399-17.988c0-7.603,14.421-16.777,24.158-20.582c0.427-0.162,0.725-0.486,1.109-0.708
				l110.396-7.893c18.193,5.495,35.004,15.326,35.004,20.651c0,11.008-10.522,24.021-14.601,28.134
				c-1.997,2.022-19.533,20.309-19.533,40.132c0,4.71,3.814,8.533,8.533,8.533c4.71,0,8.533,3.831,8.533,8.533
				c0,4.702-3.823,8.533-8.533,8.533c-4.719,0-8.533,3.823-8.533,8.533s3.814,8.533,8.533,8.533c4.71,0,8.533,3.831,8.533,8.533
				s-3.823,8.533-8.533,8.533c-4.719,0-8.533,3.823-8.533,8.533s3.814,8.533,8.533,8.533c4.71,0,8.533,3.831,8.533,8.533
				c0,4.864-3.669,8.533-8.533,8.533H230.4c-4.719,0-8.533,3.823-8.533,8.533V486.4c0,14.114,11.486,25.6,25.6,25.6h17.067
				c14.114,0,25.6-11.486,25.6-25.6v-8.533h25.6c14.362,0,25.6-11.247,25.6-25.6c0-6.554-2.475-12.535-6.536-17.067
				c4.062-4.531,6.536-10.513,6.536-17.067c0-6.554-2.475-12.535-6.536-17.067c4.062-4.531,6.536-10.513,6.536-17.067
				c0-10.684-6.588-19.823-15.889-23.663c2.807-9.097,10.163-18.21,13.389-21.504c1.997-1.997,19.567-20.139,19.567-40.166
				c0-9.523-7.134-17.263-16.128-23.228l33.195-2.372c18.825,0,34.133-15.309,34.133-34.133c0-16.196-11.981-28.86-31.983-33.86
				l-52.651-13.73l50.5-3.61C394.291,187.733,409.6,172.425,409.6,153.6z M273.067,486.4c0,4.702-3.823,8.533-8.533,8.533h-17.067
				c-4.71,0-8.533-3.831-8.533-8.533v-8.533h34.133V486.4z M373.402,221.611c5.751,1.442,19.132,6.008,19.132,17.323
				c0,9.412-7.663,17.067-17.672,17.084l-68.173,4.881c-0.282,0.017-0.555,0.017-0.836,0.06l-169.318,12.109
				c-9.412,0-17.067-7.654-17.067-17.067c0-9.412,7.654-17.067,17.69-17.092l101.581-7.467c0.06,0,0.137,0.026,0.205,0.026
				c0.154,0,0.299-0.068,0.461-0.077l42.82-3.149c4.702-0.341,8.235-4.437,7.885-9.131c-0.341-4.702-4.497-8.269-9.131-7.885
				l-41.429,3.046l-50.671-13.193l83.004-5.939L373.402,221.611z M136.533,187.733c-9.412,0-17.067-7.654-17.067-17.067
				c0-9.412,7.654-17.067,17.69-17.092l101.581-7.467c0.06,0,0.137,0.026,0.205,0.026c0.154,0,0.299-0.068,0.461-0.077l42.82-3.149
				c4.702-0.341,8.235-4.429,7.885-9.131c-0.341-4.702-4.497-8.277-9.131-7.885l-41.429,3.046l-50.671-13.193l83.004-5.939
				l101.521,26.47c5.751,1.442,19.132,6.007,19.132,17.323c0,9.412-7.663,17.067-17.672,17.084L136.533,187.733z"/>
			<path d="M267.034,338.833c1.664,1.664,3.849,2.5,6.033,2.5c2.185,0,4.369-0.836,6.033-2.5l25.6-25.6
				c3.336-3.337,3.336-8.73,0-12.066l-8.533-8.533c-3.336-3.337-8.73-3.337-12.066,0c-3.337,3.337-3.337,8.73,0,12.066l2.5,2.5
				l-19.567,19.567C263.697,330.103,263.697,335.497,267.034,338.833z"/>
		</g>
	</g>
</g>
</svg>