<?xml version="1.0" encoding="iso-8859-1"?>
<!-- Uploaded to: SVG Repo, www.svgrepo.com, Generator: SVG Repo Mixer Tools -->
<svg fill="#000000" height="800px" width="800px" version="1.1" id="Layer_1" xmlns="http://www.w3.org/2000/svg" xmlns:xlink="http://www.w3.org/1999/xlink" 
	 viewBox="0 0 512.009 512.009" xml:space="preserve">
<g>
	<g>
		<g>
			<path d="M498.082,429.146c-3.371,2.739-6.323,5.7-9.182,8.55c-8.141,8.141-14.566,14.575-28.1,14.575
				c-13.534,0-19.959-6.434-28.1-14.575c-8.713-8.713-19.567-19.558-40.166-19.558c-20.599,0-31.445,10.846-40.166,19.558
				c-8.141,8.141-14.566,14.575-28.1,14.575c-13.534,0-19.959-6.434-28.1-14.575c-8.713-8.713-19.567-19.558-40.166-19.558
				c-20.599,0-31.445,10.846-40.166,19.558c-8.141,8.141-14.566,14.575-28.1,14.575s-19.959-6.434-28.1-14.575
				c-8.713-8.713-19.567-19.558-40.166-19.558S88.021,428.984,79.3,437.696c-8.141,8.141-14.566,14.575-28.1,14.575
				s-19.959-6.434-28.1-14.575c-2.859-2.85-5.811-5.803-9.19-8.542c-3.652-2.978-9.037-2.406-11.998,1.246
				c-2.97,3.661-2.415,9.037,1.246,12.006c2.697,2.185,5.214,4.702,7.876,7.364c8.721,8.713,19.567,19.567,40.166,19.567
				c20.599,0,31.454-10.854,40.166-19.567c8.141-8.141,14.566-14.566,28.1-14.566s19.959,6.426,28.1,14.566
				c8.721,8.713,19.567,19.567,40.166,19.567s31.454-10.854,40.166-19.567c8.141-8.141,14.566-14.566,28.1-14.566
				s19.959,6.426,28.1,14.566c8.721,8.713,19.567,19.567,40.166,19.567s31.454-10.854,40.166-19.567
				c8.141-8.141,14.566-14.566,28.1-14.566c13.534,0,19.959,6.426,28.1,14.566c8.721,8.713,19.567,19.567,40.166,19.567
				c20.599,0,31.454-10.854,40.166-19.567c2.671-2.671,5.197-5.188,7.885-7.381c3.661-2.978,4.207-8.354,1.237-12.006
				C507.128,426.731,501.76,426.176,498.082,429.146z"/>
			<path d="M54.05,289.865c2.133,12.86,5.487,25.446,9.984,37.555l-39.415,22.758c-1.963,1.126-3.396,2.995-3.977,5.18
				c-0.58,2.185-0.282,4.514,0.853,6.477c15.531,26.889,48.964,37.137,76.629,24.431c3.934,4.608,9.02,10.138,15.189,16.538
				c3.285,3.396,8.695,3.482,12.075,0.205c3.388-3.277,3.482-8.678,0.213-12.066c-8.38-8.67-14.78-15.821-18.517-20.693
				c-2.603-3.379-7.322-4.318-11.025-2.193l-1.493,0.853c-17.826,10.3-40.115,6.221-53.282-8.644l37.641-21.726
				c3.721-2.142,5.265-6.707,3.627-10.667c-6.255-15.061-10.496-30.993-12.638-47.377c-0.555-4.25-4.181-7.424-8.465-7.424h-1.715
				c-20.608,0-37.837-14.686-41.805-34.133h43.52c4.284,0,7.91-3.183,8.465-7.433c2.142-16.384,6.383-32.316,12.638-47.377
				c1.638-3.959,0.094-8.525-3.627-10.667l-1.417-0.819c-9.873-5.692-16.939-14.891-19.891-25.899
				c-2.202-8.209-1.911-16.691,0.734-24.567l37.683,21.76c3.703,2.15,8.422,1.212,11.042-2.185
				c10.018-13.03,21.683-24.695,34.679-34.679c3.396-2.603,4.335-7.313,2.193-11.025l-0.845-1.485
				c-5.709-9.865-7.228-21.367-4.275-32.375c2.202-8.209,6.682-15.411,12.911-20.907l21.743,37.658
				c2.15,3.712,6.741,5.248,10.65,3.601c15.061-6.246,31.002-10.496,47.377-12.629c4.25-0.555,7.433-4.173,7.433-8.457v-1.715
				c0-11.392,4.437-22.11,12.493-30.174c6.007-6.007,13.491-10.001,21.632-11.648v43.537c0,4.284,3.183,7.902,7.432,8.457
				c16.367,2.133,32.307,6.383,47.377,12.638c3.908,1.621,8.499,0.102,10.65-3.61l0.836-1.434
				c5.692-9.873,14.891-16.93,25.899-19.883c8.226-2.202,16.708-1.92,24.567,0.725l-21.76,37.692
				c-2.15,3.712-1.212,8.44,2.185,11.042c12.996,9.984,24.661,21.649,34.679,34.679c2.62,3.405,7.339,4.343,11.042,2.185
				l1.468-0.845c9.873-5.7,21.385-7.219,32.375-4.267c8.209,2.193,15.411,6.682,20.907,12.911l-37.641,21.726
				c-3.721,2.142-5.265,6.707-3.627,10.667c6.255,15.07,10.505,31.01,12.638,47.377c0.546,4.25,4.173,7.433,8.457,7.433h1.715h0.017
				c11.392,0,22.101,4.437,30.157,12.493c6.008,6.007,10.001,13.491,11.657,21.632h-43.546c-4.284,0-7.91,3.183-8.457,7.433
				c-2.142,16.375-6.391,32.316-12.646,47.369c-1.638,3.968-0.085,8.525,3.627,10.667l1.425,0.828
				c17.843,10.291,25.446,31.625,19.149,50.458l-37.709-21.769c-3.695-2.133-8.422-1.195-11.025,2.193
				c-4.369,5.7-9.122,11.196-14.114,16.35c-3.277,3.388-3.191,8.789,0.205,12.066c3.371,3.268,8.772,3.2,12.058-0.196
				c3.703-3.823,7.296-7.834,10.709-11.964l39.475,22.801c1.314,0.751,2.79,1.143,4.267,1.143c0.742,0,1.485-0.102,2.21-0.29
				c2.193-0.589,4.053-2.022,5.188-3.985c15.488-26.846,7.706-60.851-17.05-78.49c4.531-12.109,7.885-24.687,10.044-37.547
				l45.568,0.009c2.27,0,4.437-0.905,6.033-2.5c1.604-1.604,2.5-3.772,2.5-6.042c-0.009-15.957-6.221-30.959-17.51-42.24
				c-9.933-9.933-22.741-15.932-36.548-17.22c-2.133-12.86-5.478-25.438-9.984-37.555l39.415-22.758
				c1.963-1.126,3.396-2.995,3.977-5.18c0.589-2.185,0.282-4.514-0.845-6.477c-7.987-13.815-20.872-23.706-36.275-27.836
				c-13.576-3.627-27.674-2.423-40.277,3.371c-8.269-10.01-17.468-19.217-27.452-27.486l22.793-39.467
				c2.355-4.079,0.956-9.301-3.123-11.657c-13.833-7.979-29.918-10.095-45.338-5.965c-13.551,3.635-25.139,11.708-33.152,22.997
				c-12.117-4.523-24.695-7.885-37.555-10.035V8.538c0-4.71-3.814-8.533-8.533-8.533h-0.009c-15.949,0-30.95,6.212-42.223,17.493
				c-9.933,9.933-15.932,22.75-17.229,36.548c-12.86,2.142-25.446,5.487-37.555,9.984l-22.75-39.407
				c-2.364-4.087-7.603-5.478-11.656-3.123c-13.815,7.979-23.706,20.855-27.836,36.275c-3.635,13.568-2.423,27.674,3.362,40.269
				c-9.992,8.252-19.191,17.451-27.486,27.452l-39.458-22.784c-4.087-2.364-9.301-0.964-11.657,3.123
				c-7.979,13.815-10.103,29.909-5.965,45.321c3.627,13.551,11.699,25.139,22.997,33.169c-4.523,12.109-7.885,24.687-10.044,37.547
				H8.533c-4.719,0-8.533,3.814-8.533,8.533C0,261.423,23.765,286.997,54.05,289.865z"/>
			<path d="M498.082,471.812c-3.371,2.739-6.323,5.7-9.182,8.559c-8.141,8.132-14.566,14.566-28.1,14.566
				c-13.534,0-19.959-6.434-28.1-14.566c-8.713-8.721-19.567-19.567-40.166-19.567c-20.599,0-31.445,10.846-40.166,19.567
				c-8.141,8.132-14.566,14.566-28.1,14.566c-13.534,0-19.959-6.434-28.1-14.566c-8.713-8.721-19.567-19.567-40.166-19.567
				c-20.599,0-31.445,10.846-40.166,19.567c-8.141,8.132-14.566,14.566-28.1,14.566s-19.959-6.434-28.1-14.566
				c-8.713-8.721-19.567-19.567-40.166-19.567S88.021,471.65,79.3,480.371c-8.141,8.132-14.566,14.566-28.1,14.566
				s-19.959-6.434-28.1-14.575c-2.859-2.85-5.811-5.803-9.19-8.542c-3.652-2.978-9.037-2.398-11.998,1.246
				c-2.97,3.661-2.415,9.037,1.246,12.006c2.697,2.185,5.214,4.702,7.876,7.364c8.721,8.713,19.567,19.567,40.166,19.567
				c20.599,0,31.454-10.854,40.166-19.567c8.141-8.141,14.566-14.566,28.1-14.566s19.959,6.426,28.1,14.566
				c8.721,8.713,19.567,19.567,40.166,19.567s31.454-10.854,40.166-19.567c8.141-8.141,14.566-14.566,28.1-14.566
				s19.959,6.426,28.1,14.566c8.721,8.713,19.567,19.567,40.166,19.567s31.454-10.854,40.166-19.567
				c8.141-8.141,14.566-14.566,28.1-14.566c13.534,0,19.959,6.426,28.1,14.566c8.721,8.713,19.567,19.567,40.166,19.567
				c20.599,0,31.454-10.854,40.166-19.567c2.671-2.671,5.197-5.188,7.885-7.381c3.661-2.978,4.207-8.354,1.237-12.006
				C507.128,469.397,501.76,468.834,498.082,471.812z"/>
			<path d="M226.534,357.474c1.229,0.623,2.551,0.93,3.866,0.93c2.466,0,4.89-1.075,6.562-3.072l85.333-102.4
				c2.116-2.543,2.577-6.084,1.161-9.088c-1.399-2.995-4.412-4.907-7.723-4.907h-40.789l15.027-75.128
				c0.785-3.951-1.289-7.902-4.975-9.506c-3.686-1.587-7.996-0.41-10.334,2.876l-85.333,119.458
				c-1.86,2.603-2.108,6.025-0.649,8.866s4.386,4.634,7.586,4.634h40.269l-14.413,57.66
				C221.158,351.654,222.993,355.674,226.534,357.474z M212.847,273.071l52.591-73.626l-9.267,46.344
				c-0.503,2.509,0.145,5.112,1.766,7.083c1.621,1.98,4.036,3.132,6.596,3.132h32.981l-49.792,59.742l8.021-32.077
				c0.64-2.551,0.068-5.248-1.553-7.322c-1.613-2.065-4.096-3.277-6.724-3.277H212.847z"/>
		</g>
	</g>
</g>
</svg>