<?xml version="1.0" encoding="iso-8859-1"?>
<!-- Uploaded to: SVG Repo, www.svgrepo.com, Generator: SVG Repo Mixer Tools -->
<svg fill="#000000" height="800px" width="800px" version="1.1" id="Layer_1" xmlns="http://www.w3.org/2000/svg" xmlns:xlink="http://www.w3.org/1999/xlink" 
	 viewBox="0 0 512 512" xml:space="preserve">
<g>
	<g>
		<g>
			<path d="M119.467,366.933c0-4.71-3.823-8.533-8.533-8.533s-8.533,3.823-8.533,8.533V384c0,4.71,3.823,8.533,8.533,8.533
				s8.533-3.823,8.533-8.533V366.933z"/>
			<path d="M119.467,264.533c0-4.71-3.823-8.533-8.533-8.533s-8.533,3.823-8.533,8.533V281.6c0,4.71,3.823,8.533,8.533,8.533
				s8.533-3.823,8.533-8.533V264.533z"/>
			<path d="M85.333,264.533c0-4.71-3.823-8.533-8.533-8.533s-8.533,3.823-8.533,8.533V281.6c0,4.71,3.823,8.533,8.533,8.533
				s8.533-3.823,8.533-8.533V264.533z"/>
			<path d="M110.933,409.6c-4.71,0-8.533,3.823-8.533,8.533V435.2c0,4.71,3.823,8.533,8.533,8.533s8.533-3.823,8.533-8.533v-17.067
				C119.467,413.423,115.644,409.6,110.933,409.6z"/>
			<path d="M119.467,315.733c0-4.71-3.823-8.533-8.533-8.533s-8.533,3.823-8.533,8.533V332.8c0,4.71,3.823,8.533,8.533,8.533
				s8.533-3.823,8.533-8.533V315.733z"/>
			<path d="M85.333,315.733c0-4.71-3.823-8.533-8.533-8.533s-8.533,3.823-8.533,8.533V332.8c0,4.71,3.823,8.533,8.533,8.533
				s8.533-3.823,8.533-8.533V315.733z"/>
			<path d="M76.8,409.6c-4.71,0-8.533,3.823-8.533,8.533V435.2c0,4.71,3.823,8.533,8.533,8.533s8.533-3.823,8.533-8.533v-17.067
				C85.333,413.423,81.51,409.6,76.8,409.6z"/>
			<path d="M85.333,366.933c0-4.71-3.823-8.533-8.533-8.533s-8.533,3.823-8.533,8.533V384c0,4.71,3.823,8.533,8.533,8.533
				s8.533-3.823,8.533-8.533V366.933z"/>
			<path d="M119.467,213.333c0-4.71-3.823-8.533-8.533-8.533s-8.533,3.823-8.533,8.533V230.4c0,4.71,3.823,8.533,8.533,8.533
				s8.533-3.823,8.533-8.533V213.333z"/>
			<path d="M452.625,471.782c1.109,3.703,4.497,6.084,8.166,6.084c0.819,0,1.638-0.119,2.458-0.358
				c4.514-1.357,7.074-6.11,5.726-10.624c-0.256-0.845-25.242-85.914-25.242-219.418v-85.333c0-4.71-3.823-8.533-8.533-8.533
				H247.467c-4.71,0-8.533,3.823-8.533,8.533v51.2c0,4.71,3.823,8.533,8.533,8.533h153.6c4.71,0,8.533-3.823,8.533-8.533
				c0-4.71-3.823-8.533-8.533-8.533H256v-34.133h170.667v76.8C426.667,383.684,451.567,468.25,452.625,471.782z"/>
			<path d="M407.279,103.782c3.473-3.183,3.712-8.576,0.529-12.049c-3.183-3.482-8.576-3.721-12.058-0.538
				c-7.885,7.228-18.116,11.204-28.817,11.204c-4.71,0-8.533,3.823-8.533,8.533s3.823,8.533,8.533,8.533
				C381.909,119.467,396.237,113.894,407.279,103.782z"/>
			<path d="M452.523,17.067c4.719,0,8.533-3.823,8.533-8.533S457.242,0,452.523,0h-0.085c-4.71,0-8.491,3.823-8.491,8.533
				S447.804,17.067,452.523,17.067z"/>
			<path d="M230.656,51.2c4.71,0,8.533-3.823,8.533-8.533c0-4.71-3.823-8.533-8.533-8.533h-0.085c-4.71,0-8.491,3.823-8.491,8.533
				C222.08,47.377,225.937,51.2,230.656,51.2z"/>
			<path d="M119.467,128v-17.067c0-4.71-3.823-8.533-8.533-8.533s-8.533,3.823-8.533,8.533V128c0,4.71,3.823,8.533,8.533,8.533
				S119.467,132.71,119.467,128z"/>
			<path d="M8.533,477.867h213.333c3.763,0,7.091-2.475,8.175-6.084C231.1,468.25,256,383.684,256,247.467
				c0-3.234-1.826-6.187-4.719-7.637l-63.548-31.77V42.667c0-4.71-3.823-8.533-8.533-8.533s-8.533,3.823-8.533,8.533v10.402
				l-95.94,23.987c-3.797,0.947-6.46,4.361-6.46,8.277V128c0,4.71,3.823,8.533,8.533,8.533s8.533-3.823,8.533-8.533V91.998
				l85.333-21.333v142.669c0,3.234,1.826,6.187,4.719,7.637l63.531,31.761c-0.538,110.387-18.048,186.692-23.569,208.068H17.067
				V155.998l119.467,29.867V435.2c0,4.71,3.823,8.533,8.533,8.533c4.71,0,8.533-3.823,8.533-8.533v-256
				c0-3.917-2.671-7.33-6.46-8.277L10.607,136.789c-2.543-0.631-5.257-0.068-7.322,1.553C1.212,139.955,0,142.438,0,145.067v324.267
				C0,474.044,3.823,477.867,8.533,477.867z"/>
			<path d="M153.6,128v-17.067c0-4.71-3.823-8.533-8.533-8.533c-4.71,0-8.533,3.823-8.533,8.533V128c0,4.71,3.823,8.533,8.533,8.533
				C149.777,136.533,153.6,132.71,153.6,128z"/>
			<path d="M238.933,93.867c0,23.526,19.14,42.667,42.667,42.667c23.526,0,42.667-19.14,42.667-42.667
				c0-4.71-3.823-8.533-8.533-8.533s-8.533,3.823-8.533,8.533c0,14.114-11.486,25.6-25.6,25.6s-25.6-11.486-25.6-25.6
				c0-12.143,8.636-22.699,20.523-25.079c2.475-0.503,4.599-2.065,5.803-4.267c1.212-2.21,1.391-4.838,0.478-7.194
				c-0.802-2.048-1.203-4.113-1.203-6.127c0-9.412,7.654-17.067,17.067-17.067c5.99,0,11.443,3.132,14.575,8.371
				c1.621,2.705,4.599,4.241,7.765,4.139c3.149-0.154,5.956-2.048,7.296-4.907c6.989-14.984,22.161-24.67,38.63-24.67
				c23.526,0,42.667,19.14,42.667,42.667c0,1.374-0.085,2.731-0.205,4.07c-0.307,3.2,1.22,6.289,3.925,8.004
				c2.714,1.724,6.161,1.775,8.917,0.137c4.113-2.44,8.474-3.678,12.962-3.678c14.114,0,25.6,11.486,25.6,25.6
				s-11.486,25.6-25.6,25.6c-4.71,0-8.533,3.823-8.533,8.533s3.823,8.533,8.533,8.533c23.526,0,42.667-19.14,42.667-42.667
				c0-23.526-19.14-42.667-42.667-42.667c-3.021,0-6.042,0.341-9.003,1.007C422.485,22.81,397.321,0,366.933,0
				c-18.918,0-36.608,9.114-47.761,23.953c-5.803-4.42-12.928-6.886-20.506-6.886c-18.825,0-34.133,15.309-34.133,34.133
				c0,1.161,0.06,2.321,0.188,3.49C249.37,61.312,238.933,76.621,238.933,93.867z"/>
			<path d="M204.8,375.467c0,4.71,3.823,8.533,8.533,8.533c4.71,0,8.533-3.823,8.533-8.533v-8.533c0-4.71-3.823-8.533-8.533-8.533
				c-4.71,0-8.533,3.823-8.533,8.533V375.467z"/>
			<path d="M213.333,290.133c4.71,0,8.533-3.823,8.533-8.533v-17.067c0-4.71-3.823-8.533-8.533-8.533
				c-4.71,0-8.533,3.823-8.533,8.533V281.6C204.8,286.31,208.623,290.133,213.333,290.133z"/>
			<path d="M170.667,435.2c0,4.71,3.823,8.533,8.533,8.533s8.533-3.823,8.533-8.533v-17.067c0-4.71-3.823-8.533-8.533-8.533
				s-8.533,3.823-8.533,8.533V435.2z"/>
			<path d="M204.8,332.8c0,4.71,3.823,8.533,8.533,8.533c4.71,0,8.533-3.823,8.533-8.533v-17.067c0-4.71-3.823-8.533-8.533-8.533
				c-4.71,0-8.533,3.823-8.533,8.533V332.8z"/>
			<path d="M128,494.933H8.533c-4.71,0-8.533,3.823-8.533,8.533S3.823,512,8.533,512H128c4.71,0,8.533-3.823,8.533-8.533
				S132.71,494.933,128,494.933z"/>
			<path d="M503.467,494.933H366.933c-4.71,0-8.533,3.823-8.533,8.533s3.823,8.533,8.533,8.533h136.533
				c4.71,0,8.533-3.823,8.533-8.533S508.177,494.933,503.467,494.933z"/>
			<path d="M281.6,494.933H162.133c-4.71,0-8.533,3.823-8.533,8.533s3.823,8.533,8.533,8.533H281.6c4.71,0,8.533-3.823,8.533-8.533
				S286.31,494.933,281.6,494.933z"/>
			<path d="M85.333,213.333c0-4.71-3.823-8.533-8.533-8.533s-8.533,3.823-8.533,8.533V230.4c0,4.71,3.823,8.533,8.533,8.533
				s8.533-3.823,8.533-8.533V213.333z"/>
			<path d="M332.8,494.933h-17.067c-4.71,0-8.533,3.823-8.533,8.533s3.823,8.533,8.533,8.533H332.8c4.71,0,8.533-3.823,8.533-8.533
				S337.51,494.933,332.8,494.933z"/>
			<path d="M51.2,264.533c0-4.71-3.823-8.533-8.533-8.533c-4.71,0-8.533,3.823-8.533,8.533V281.6c0,4.71,3.823,8.533,8.533,8.533
				c4.71,0,8.533-3.823,8.533-8.533V264.533z"/>
			<path d="M170.667,384c0,4.71,3.823,8.533,8.533,8.533s8.533-3.823,8.533-8.533v-17.067c0-4.71-3.823-8.533-8.533-8.533
				s-8.533,3.823-8.533,8.533V384z"/>
			<path d="M51.2,315.733c0-4.71-3.823-8.533-8.533-8.533c-4.71,0-8.533,3.823-8.533,8.533V332.8c0,4.71,3.823,8.533,8.533,8.533
				c4.71,0,8.533-3.823,8.533-8.533V315.733z"/>
			<path d="M51.2,366.933c0-4.71-3.823-8.533-8.533-8.533c-4.71,0-8.533,3.823-8.533,8.533V384c0,4.71,3.823,8.533,8.533,8.533
				c4.71,0,8.533-3.823,8.533-8.533V366.933z"/>
			<path d="M42.667,409.6c-4.71,0-8.533,3.823-8.533,8.533V435.2c0,4.71,3.823,8.533,8.533,8.533c4.71,0,8.533-3.823,8.533-8.533
				v-17.067C51.2,413.423,47.377,409.6,42.667,409.6z"/>
			<path d="M179.2,290.133c4.71,0,8.533-3.823,8.533-8.533v-17.067c0-4.71-3.823-8.533-8.533-8.533s-8.533,3.823-8.533,8.533V281.6
				C170.667,286.31,174.49,290.133,179.2,290.133z"/>
			<path d="M51.2,213.333c0-4.71-3.823-8.533-8.533-8.533c-4.71,0-8.533,3.823-8.533,8.533V230.4c0,4.71,3.823,8.533,8.533,8.533
				c4.71,0,8.533-3.823,8.533-8.533V213.333z"/>
			<path d="M170.667,332.8c0,4.71,3.823,8.533,8.533,8.533s8.533-3.823,8.533-8.533v-17.067c0-4.71-3.823-8.533-8.533-8.533
				s-8.533,3.823-8.533,8.533V332.8z"/>
		</g>
	</g>
</g>
</svg>